<svg viewBox="0 0 24 24" xmlns="http://www.w3.org/2000/svg" xmlns:xlink="http://www.w3.org/1999/xlink" width="24.000000" height="24.000000" fill="none" customFrame="#000000">
	<rect id="loma/line/donlowad" width="24.000000" height="24.000000" x="0.000000" y="0.000000" fill="rgb(255,255,255)" fill-opacity="0" />
	<g id="donlowad">
		<path id="Vector 354" d="M7 0L0 0" stroke="rgb(12,12,12)" stroke-linecap="round" stroke-dasharray="0.2 0.2 " stroke-width="1.500000" transform="matrix(-3.08829e-16,-1,1,-4.01545e-16,12,12)" />
		<path id="Vector 355" d="M3 4L1.24808 2.83205C0.654342 2.43623 0.654342 1.56377 1.24808 1.16795L3 0" stroke="rgb(12,12,12)" stroke-linecap="round" stroke-dasharray="0.2 0.2 " stroke-width="1.500000" transform="matrix(-3.08829e-16,-1,1,-4.01545e-16,10,14)" />
		<path id="Rectangle 1302" d="M9 13L9 13.2C9 14.7464 7.7464 16 6.2 16L2.81024 16C1.26143 16 0.00708113 14.7426 0.00796909 13.1938C0.0102141 9.27829 -0.00140899 6.3834 0.000143258 2.79331C0.00081068 1.24953 1.25359 0 2.79738 0L6.2 0C7.7464 0 9 1.2536 9 2.8L9 3.5" stroke="rgb(12,12,12)" stroke-linecap="round" stroke-width="1.500000" transform="matrix(3.52149e-16,-1,-1,-3.52149e-16,20,19)" />
	</g>
</svg>
